<svg width="64" height="70" viewBox="0 0 64 70" fill="none" xmlns="http://www.w3.org/2000/svg">
<path d="M0.314366 24.0654C0.466317 23.386 0.794608 22.743 1.25537 22.2222C1.71613 21.7014 2.28742 21.3276 2.89289 21.1509L16.1788 17.2244C16.4467 17.1448 16.7053 17.005 16.9381 16.8143C17.1709 16.6235 17.3727 16.3858 17.5307 16.1166L25.3493 2.74766C25.7049 2.13861 26.2021 1.63733 26.7751 1.30998C27.3482 0.982623 27.9701 0.844579 28.559 0.914067C29.1478 0.983555 29.6759 1.25731 30.0734 1.6992C30.4709 2.14108 30.7192 2.73033 30.7856 3.38917L32.2508 17.8495C32.2808 18.1409 32.3665 18.4125 32.5023 18.6468C32.6381 18.8811 32.8211 19.0729 33.0395 19.2099L43.8864 25.9884C44.3807 26.2966 44.7554 26.7822 44.9613 27.3812C45.1672 27.9801 45.1944 28.6642 45.0395 29.3433C44.8846 30.0223 44.5547 30.6643 44.0935 31.1845C43.6323 31.7048 43.0613 32.0788 42.4561 32.2572L29.1702 36.1837C28.9023 36.2634 28.6437 36.4031 28.4109 36.5939C28.1781 36.7847 27.9762 37.0223 27.8183 37.2916L20.0469 50.5792C19.6843 51.2139 19.1714 51.7371 18.578 52.0774C17.9846 52.4178 17.3396 52.5588 16.7307 52.4813C16.1544 52.4028 15.6398 52.1261 15.2534 51.6871C14.867 51.2481 14.6266 50.667 14.5634 50.019L13.0981 35.5586C13.0681 35.2672 12.9825 34.9956 12.8467 34.7614C12.7109 34.5271 12.5279 34.3352 12.3095 34.1982L1.46253 27.4197C0.967335 27.1131 0.592084 26.6277 0.386914 26.0283C0.181748 25.4289 0.156436 24.7442 0.314366 24.0654ZM43.1216 12.5678C43.2124 12.1697 43.4057 11.7933 43.6761 11.4882C43.9464 11.183 44.281 10.9635 44.6358 10.8585L50.258 9.19682C50.3808 9.16092 50.4995 9.09715 50.6062 9.00969C50.713 8.92222 50.8053 8.81304 50.8773 8.6893L54.1841 3.03358C54.3929 2.67673 54.6845 2.38311 55.0205 2.1914C55.3565 1.99969 55.7212 1.91888 56.0664 1.95961C56.4116 2.00035 56.7212 2.16072 56.9544 2.41961C57.1876 2.67849 57.3334 3.02373 57.3727 3.40986L57.9929 9.52899C58.0063 9.66267 58.0454 9.78724 58.1076 9.89462C58.1699 10.002 58.2539 10.0898 58.3542 10.1522L62.9023 12.9934C63.1713 13.1551 63.384 13.4038 63.5175 13.7129C63.6509 14.0219 63.7001 14.3795 63.6598 14.7473C63.6063 15.1883 63.4242 15.6195 63.1424 15.9725C62.8606 16.3255 62.4952 16.58 62.1042 16.6959L56.482 18.3576C56.3592 18.3937 56.2406 18.4576 56.1339 18.545C56.0272 18.6324 55.9348 18.7415 55.8627 18.8651L52.5558 24.5208C52.347 24.8776 52.0554 25.1713 51.7194 25.363C51.3834 25.5547 51.0188 25.6355 50.6735 25.5948C50.3283 25.554 50.0187 25.3937 49.7855 25.1348C49.5523 24.8759 49.4065 24.5306 49.3672 24.1445L48.747 18.0254C48.7339 17.8916 48.6949 17.7669 48.6326 17.6595C48.5703 17.5521 48.4862 17.4644 48.3857 17.4022L43.7968 14.5355C43.5072 14.3544 43.2877 14.0695 43.1672 13.7183C43.0467 13.367 43.0308 12.9659 43.1216 12.5678ZM24.2446 53.368C24.3438 52.9337 24.5548 52.5231 24.8498 52.1904C25.1448 51.8576 25.5099 51.6183 25.897 51.504L33.511 49.2526C33.6451 49.213 33.7747 49.1432 33.8913 49.0477C34.0078 48.9522 34.1088 48.8331 34.1877 48.6981L38.6668 41.039C38.8946 40.6499 39.2126 40.3297 39.579 40.1207C39.9455 39.9117 40.3431 39.8236 40.7195 39.868C41.096 39.9124 41.4336 40.0873 41.6879 40.3696C41.9422 40.6518 42.1013 41.0283 42.1443 41.4493L42.985 49.7362C42.9997 49.8822 43.0425 50.0183 43.1105 50.1356C43.1785 50.2529 43.2702 50.3489 43.3797 50.4172L49.5503 54.2718C49.8433 54.4491 50.0749 54.7206 50.2206 55.0577C50.3663 55.3947 50.4206 55.7845 50.3778 56.1857C50.3192 56.6669 50.1203 57.1373 49.8125 57.5222C49.5048 57.9071 49.1059 58.1845 48.6791 58.3104L41.0651 60.5617C40.9309 60.6013 40.8013 60.6711 40.6848 60.7666C40.5682 60.8622 40.4672 60.9813 40.3884 61.1163L35.9093 68.7754C35.6815 69.1645 35.3634 69.4846 34.997 69.6936C34.6306 69.9026 34.233 69.9907 33.8565 69.9463C33.4801 69.9019 33.1425 69.727 32.8882 69.4448C32.6338 69.1625 32.4747 68.786 32.4318 68.365L31.5911 60.0781C31.5763 59.9321 31.5336 59.796 31.4656 59.6787C31.3976 59.5614 31.3058 59.4655 31.1963 59.3971L24.982 55.514C24.666 55.3167 24.4264 55.006 24.2948 54.6229C24.1631 54.2398 24.1456 53.8023 24.2446 53.368Z" fill="#0259DC"/>
</svg>
