<svg width="22" height="39" viewBox="0 0 22 39" fill="none" xmlns="http://www.w3.org/2000/svg">
<path d="M14.126 1.37891H21.1416C21.1455 1.37891 21.1497 1.3794 21.1533 1.38086C21.1571 1.38242 21.1612 1.38479 21.1641 1.3877C21.1669 1.39059 21.1693 1.39461 21.1709 1.39844C21.1724 1.40211 21.1728 1.40617 21.1729 1.41016V8.78223C21.1728 8.79069 21.169 8.79879 21.1631 8.80469C21.1573 8.8104 21.1497 8.81338 21.1416 8.81348H15.0049C13.9852 8.81348 13.1583 9.64046 13.1582 10.6602V13.8389H21.1416C21.1497 13.839 21.1572 13.8428 21.1631 13.8486C21.169 13.8546 21.1729 13.8625 21.1729 13.8711V21.3594C21.1728 21.3678 21.169 21.3759 21.1631 21.3818C21.1573 21.3876 21.1497 21.3905 21.1416 21.3906H13.6895V38.3223C13.6895 38.3308 13.6866 38.3397 13.6807 38.3457C13.6748 38.3516 13.6664 38.3544 13.6582 38.3545H6.58398C6.57584 38.3545 6.56744 38.3515 6.56152 38.3457C6.55556 38.3397 6.55176 38.3308 6.55176 38.3223V21.3906H1.2041C1.19595 21.3905 1.18848 21.3867 1.18262 21.3809C1.17665 21.3749 1.17285 21.367 1.17285 21.3584V13.8701C1.17294 13.8617 1.17673 13.8535 1.18262 13.8477C1.18845 13.842 1.19606 13.839 1.2041 13.8389H6.55176V10.3027C6.55178 10.2998 6.55206 10.2968 6.55273 10.2939L6.56641 10.2363V10.1777C6.56825 8.0295 6.80458 5.83501 7.8418 4.18164C8.8491 2.57604 10.6719 1.39161 14.0801 1.38086H14.1035L14.126 1.37891Z" fill="white" stroke="white"/>
</svg>
