<svg width="29" height="29" viewBox="0 0 29 29" fill="none" xmlns="http://www.w3.org/2000/svg">
<path d="M14.5137 2.98242C12.6727 2.98242 11.6225 3.00341 10.8574 3.02441C10.0923 3.04542 9.61325 3.0664 8.91406 3.06641H8.91309C8.00228 3.07358 7.09895 3.23478 6.24219 3.54395L6.24023 3.54492C5.64818 3.80263 5.12036 4.18744 4.69238 4.6709C4.2074 5.09652 3.82554 5.62712 3.57715 6.22266V6.22363C3.25809 7.07794 3.09142 7.98164 3.08496 8.89355C3.00091 10.2944 3.00098 10.8137 3.00098 14.4951C3.00098 16.3361 3.02196 17.3863 3.04297 18.1514C3.06398 18.9165 3.08495 19.3955 3.08496 20.0947V20.0957C3.11368 21.0116 3.30369 21.9158 3.64648 22.7656V22.7666C3.86493 23.3804 4.22232 23.9355 4.69043 24.3887V24.3877C5.12944 24.8428 5.65718 25.2029 6.24121 25.4453L6.24316 25.4463C7.12038 25.7424 8.04209 25.8842 8.96777 25.8672V25.8682C10.3688 25.9522 10.888 25.9521 14.5693 25.9521C18.251 25.9521 18.7704 25.9382 20.1709 25.8682L20.1699 25.8672C20.9508 25.8582 21.7256 25.7342 22.4688 25.498L22.7852 25.3896C23.3961 25.159 23.9498 24.7981 24.4072 24.332L24.4062 24.3311C24.8769 23.8775 25.2397 23.3236 25.4648 22.71C25.7707 21.8722 25.932 20.9885 25.9424 20.0967C26.0124 18.6959 26.0264 18.1771 26.0264 14.4951C26.0264 11.7334 26.0188 10.7513 25.9854 9.8418L25.9424 8.89355C25.9384 7.98274 25.7771 7.07926 25.4648 6.22363L25.4639 6.22266C25.2586 5.70758 24.9563 5.23763 24.5742 4.83789L24.4062 4.6709C23.9443 4.16804 23.3697 3.78157 22.7295 3.54395H22.7285C21.8904 3.23795 21.0064 3.07666 20.1143 3.06641H20.1152C18.7144 2.98236 18.1951 2.98242 14.5137 2.98242ZM14.5137 7.3457C15.4542 7.34203 16.3861 7.52502 17.2559 7.88281C18.1256 8.2406 18.9164 8.76631 19.582 9.43066C20.2477 10.0951 20.7753 10.8848 21.1348 11.7539C21.4943 12.623 21.6786 13.5546 21.6768 14.4951C21.6768 15.9085 21.2576 17.2904 20.4727 18.4658C19.6877 19.641 18.572 20.5572 17.2666 21.0986C15.9611 21.6401 14.5241 21.7825 13.1377 21.5078C11.7515 21.2331 10.4778 20.5539 9.47754 19.5557C8.47717 18.5572 7.79501 17.2843 7.51758 15.8984C7.24015 14.5126 7.37998 13.0751 7.91895 11.7686C8.45793 10.4621 9.37217 9.34478 10.5459 8.55762C11.7197 7.77045 13.1004 7.34847 14.5137 7.3457ZM16.3105 10.1572C15.4527 9.80189 14.5084 9.70947 13.5977 9.89062C12.687 10.0718 11.8509 10.5192 11.1943 11.1758C10.5378 11.8323 10.0903 12.6684 9.90918 13.5791C9.72803 14.4898 9.82044 15.4341 10.1758 16.292C10.5311 17.1498 11.1333 17.8826 11.9053 18.3984C12.6773 18.9143 13.5851 19.1895 14.5137 19.1895C15.1302 19.1895 15.7409 19.0689 16.3105 18.833C16.8801 18.5971 17.3971 18.2504 17.833 17.8145C18.2689 17.3785 18.6156 16.8616 18.8516 16.292C19.0875 15.7224 19.208 15.1116 19.208 14.4951C19.208 13.5666 18.9329 12.6588 18.417 11.8867C17.9011 11.1148 17.1683 10.5125 16.3105 10.1572ZM21.9893 5.37207C22.4261 5.37207 22.8454 5.54558 23.1543 5.85449C23.4632 6.1634 23.6367 6.58267 23.6367 7.01953C23.6366 7.34517 23.5403 7.66381 23.3594 7.93457C23.1784 8.20535 22.921 8.41637 22.6201 8.54102C22.3191 8.66569 21.9875 8.69832 21.668 8.63477C21.3486 8.57117 21.0555 8.41388 20.8252 8.18359C20.5949 7.95331 20.4376 7.66022 20.374 7.34082C20.3105 7.0213 20.3431 6.68966 20.4678 6.38867C20.5924 6.08777 20.8034 5.83039 21.0742 5.64941C21.345 5.4685 21.6636 5.37215 21.9893 5.37207ZM0.630859 20.2617C0.546921 18.7788 0.546875 18.3033 0.546875 14.4951C0.546875 10.6869 0.546921 10.2114 0.630859 8.72852V8.72754C0.654903 7.56827 0.87617 6.42154 1.28613 5.33691V5.33594C1.62627 4.40337 2.17475 3.56081 2.88867 2.87109L2.88965 2.87012C3.58191 2.15909 4.42448 1.61116 5.35547 1.26758C6.4401 0.857615 7.58682 0.636348 8.74609 0.612305H8.74707C10.23 0.528367 10.7055 0.52832 14.5137 0.52832C18.3219 0.52832 18.7974 0.528367 20.2803 0.612305H20.2812C21.4405 0.636348 22.5872 0.857615 23.6719 1.26758H23.6729C24.6054 1.60771 25.448 2.1562 26.1377 2.87012H26.1387C26.7604 3.47877 27.2607 4.19924 27.6133 4.99219L27.7549 5.33691C28.1527 6.42446 28.3693 7.56983 28.3965 8.72754V8.72852C28.4804 10.2114 28.4805 10.6869 28.4805 14.4951C28.4805 16.3988 28.4595 17.4698 28.4385 18.25C28.4175 19.0298 28.3965 19.5204 28.3965 20.2627L28.3779 20.6963C28.3128 21.7059 28.103 22.7018 27.7549 23.6533C27.4043 24.5842 26.8523 25.4261 26.1387 26.1191L26.1377 26.1201C25.448 26.834 24.6054 27.3825 23.6729 27.7227H23.6719C22.5872 28.1326 21.4405 28.3539 20.2812 28.3779H20.2803C18.7974 28.4619 18.3219 28.4619 14.5137 28.4619C10.7055 28.4619 10.23 28.4619 8.74707 28.3779H8.74609C7.58682 28.3539 6.4401 28.1326 5.35547 27.7227C4.42448 27.3791 3.58191 26.8311 2.88965 26.1201L2.88867 26.1191L2.62891 25.8535C2.04112 25.2173 1.58376 24.4703 1.28613 23.6543V23.6533C0.876169 22.5687 0.654902 21.422 0.630859 20.2627V20.2617Z" fill="white" stroke="white" stroke-width="0.065625"/>
</svg>
