<svg width="31" height="25" viewBox="0 0 31 25" fill="none" xmlns="http://www.w3.org/2000/svg">
<path d="M18.2119 1.25195C19.4062 0.613908 20.7783 0.390351 22.1133 0.616211C23.4483 0.84208 24.671 1.50458 25.5889 2.5L25.6016 2.51465L25.6211 2.51074C26.9753 2.2435 28.2738 1.74852 29.4648 1.05176C28.9939 2.43171 28.0503 3.60167 26.7969 4.35059L26.8184 4.41602C28.0024 4.27288 29.1597 3.9623 30.2578 3.49805C29.4631 4.68022 28.4754 5.72133 27.333 6.57324L27.3193 6.58301V7.39648L27.3174 7.82812C27.2805 9.98624 26.8409 12.12 26.0205 14.1191C25.1454 16.2513 23.8544 18.1878 22.2227 19.8154C20.5907 21.4432 18.6503 22.73 16.5156 23.5996C14.5144 24.4148 12.3798 24.8486 10.2217 24.8799L9.79004 24.8809H9.78906C6.50017 24.8848 3.28078 23.9498 0.503906 22.1914C0.952422 22.241 1.40316 22.2681 1.85449 22.2666C4.61616 22.2589 7.29546 21.3259 9.46582 19.6182L9.54395 19.5576L9.44531 19.5557C8.17098 19.5311 6.93592 19.1098 5.91211 18.3506C4.9036 17.6027 4.14947 16.5637 3.75098 15.374C4.0198 15.4179 4.29059 15.448 4.5625 15.4619L4.85449 15.4707C5.4171 15.4644 5.97638 15.3786 6.51465 15.2148L6.51172 15.1465C5.1296 14.8715 3.88412 14.128 2.9873 13.041C2.09048 11.954 1.59713 10.5899 1.58984 9.18066V9.16309C2.43651 9.6239 3.37961 9.88002 4.34375 9.90625L4.46582 9.90918L4.36426 9.8418C3.52761 9.28358 2.84174 8.52696 2.36816 7.63965C1.89463 6.75237 1.64751 5.76159 1.64941 4.75586C1.64873 3.68972 1.92338 2.64189 2.44531 1.71289C3.98609 3.59993 5.90361 5.14499 8.07617 6.24805C10.2641 7.35885 12.6617 7.99708 15.1123 8.12109L15.1602 8.12305L15.1484 8.07812C14.8312 6.76178 14.9603 5.37696 15.5146 4.1416C16.069 2.90631 17.0177 1.89001 18.2119 1.25195Z" fill="white" stroke="white" stroke-width="0.0703125"/>
</svg>
