<svg width="417" height="48" viewBox="0 0 417 48" fill="none" xmlns="http://www.w3.org/2000/svg">
<path d="M327.712 13.2409C326.386 13.3759 325.061 13.5109 323.883 13.6458C306.355 15.8054 288.828 17.9199 271.301 20.0794C229.029 25.2532 186.758 30.472 144.486 35.6009C128.726 37.5355 112.819 39.335 96.4704 40.7747C89.4006 41.4046 82.1835 41.9445 74.9664 42.2594C66.7183 42.6193 58.6175 42.0344 51.2531 40.8197C45.3616 39.8299 43.1523 38.1653 45.2143 36.1858C46.8345 34.5661 49.7802 33.2164 54.4934 32.3166C59.2066 31.4618 63.9199 30.607 68.7804 29.9322C81.2998 28.2226 93.9665 26.6029 106.633 24.9833C126.37 22.5088 146.254 20.0794 166.137 17.605C180.13 15.8504 193.975 13.9158 207.083 11.6213C212.68 10.6315 217.983 9.50679 223.285 8.42703C225.347 7.97713 227.262 7.39226 229.324 6.8074C227.998 6.53746 226.82 6.67243 225.936 6.76241C220.634 7.2123 215.184 7.61721 209.882 8.1121C193.238 9.77673 177.184 11.8013 161.277 14.0058C117.827 19.9894 74.5245 26.063 31.222 32.0917C27.2452 32.6316 23.4157 33.2164 19.2917 33.7113C16.6405 34.0262 13.842 34.2512 11.1909 34.3412C6.47766 34.4761 2.2063 33.8013 0.733429 32.7665C-1.03403 31.4618 0.586121 30.3371 3.53189 29.3923C5.88849 28.6275 8.83423 28.1326 11.78 27.7277C35.6406 24.3534 59.3539 20.9792 83.3618 17.6499C114.145 13.3759 144.781 8.96691 176.153 5.09778C189.851 3.38817 203.549 1.76854 217.835 0.688778C222.991 0.283871 228.293 -0.0760498 233.743 0.0139313C236.394 0.0589218 239.045 0.148899 241.401 0.418839C249.208 1.22865 253.774 3.43316 253.037 5.95259C252.743 7.2123 251.27 8.33705 249.06 9.41681C246.704 10.5865 243.758 11.5763 240.37 12.4761C234.774 14.0508 228.44 15.3105 221.812 16.4802C204.874 19.4945 187.052 21.969 168.936 24.2185C143.602 27.3677 118.269 30.517 92.9355 33.6663C90.2843 33.9813 87.4859 34.3862 84.8347 34.7461C84.2455 34.8361 83.6564 34.926 83.2145 35.196C84.5401 35.106 85.8657 35.016 87.1913 34.8811C103.54 33.4414 119.595 31.6418 135.502 29.7072C175.858 24.8033 216.068 19.8544 256.425 14.9056C276.603 12.4311 296.634 9.91169 316.813 7.52723C324.766 6.58245 333.014 5.86261 341.262 5.09778C345.092 4.73786 348.921 4.60289 352.898 4.73787C364.681 5.14277 370.131 8.78695 363.208 11.7563C361.883 12.2962 360.263 12.791 358.642 13.2409C351.72 15.2205 344.208 16.9751 336.255 18.5947C322.999 21.2941 309.154 23.7236 294.867 25.8831C269.828 29.6622 244.642 33.3964 219.456 37.1305C214.742 37.8504 210.176 38.5702 205.463 39.335C204.58 39.47 203.843 39.65 202.959 39.7849C203.107 39.8299 203.107 39.9199 203.254 39.9649C204.58 39.8749 205.905 39.74 207.231 39.65C227.115 37.8504 246.262 35.4659 265.409 33.0365C303.262 28.2226 339.79 22.7788 376.022 17.1101C382.503 16.0753 389.278 15.1305 395.906 14.1857C397.968 13.8708 400.178 13.6458 402.387 13.4659C404.891 13.2409 407.542 13.2409 410.193 13.5559C414.023 14.0058 416.526 14.9056 416.968 16.1653C417.263 17.425 415.495 18.4148 411.961 19.0896C411.371 19.2246 410.782 19.3146 410.046 19.4045C399.441 20.5743 389.573 22.2389 379.705 23.7686C340.968 29.8422 301.642 35.5559 261.433 40.5948C242.58 42.9792 223.432 45.1387 203.696 46.7134C196.037 47.3432 188.378 47.8381 180.424 47.9731C177.037 48.0181 173.502 48.0181 170.114 47.8831C167.905 47.7931 165.548 47.5682 163.486 47.2533C156.711 46.1285 154.502 43.6991 158.773 41.7195C160.246 40.9997 162.308 40.3248 164.517 39.8299C169.672 38.6602 174.827 37.4455 180.424 36.4557C193.828 34.1612 207.231 31.8667 220.928 29.7972C245.231 26.063 269.681 22.5538 294.13 18.8647C304.441 17.29 314.456 15.5804 324.619 13.9608C325.65 13.7808 326.681 13.6009 327.712 13.3759C327.712 13.3309 327.712 13.2859 327.712 13.2409Z" fill="#C6F806"/>
</svg>
